<svg width="91" height="104" viewBox="0 0 91 104" fill="none" xmlns="http://www.w3.org/2000/svg">
<path d="M90.4286 0.998413L82.2098 93.0032L45.2663 103.238L8.4244 93.0176L0.214355 0.998413H90.4286Z" fill="#264DE4"/>
<path d="M45.3213 95.4149L75.1735 87.1446L82.197 8.52234H45.3213V95.4149Z" fill="#2965F1"/>
<path d="M45.3213 42.6509H19.0356L20.0478 53.9366H45.3213V42.6509Z" fill="#EBEBEB"/>
<path d="M45.3214 19.8083H45.2824H17.0017L18.0284 31.0942H45.3214V19.8083Z" fill="#EBEBEB"/>
<path d="M20.5526 59.5797L22.1349 77.3L45.2696 83.7177L45.3215 83.7033V71.9614L45.272 71.9745L32.694 68.5807L31.8899 59.5797H20.5526Z" fill="#EBEBEB"/>
<path d="M59.1895 53.9367L57.8785 68.5734L45.2823 71.9708V83.7123L68.4354 77.3L71.2592 45.6816L71.5347 42.651L73.5736 19.8083H45.2824L45.2823 31.0942H61.1965L60.1689 42.651H45.2823V53.9367H59.1895Z" fill="white"/>
</svg>
