<svg width="103" height="103" viewBox="0 0 103 103" fill="none" xmlns="http://www.w3.org/2000/svg">
<path d="M102.746 0.236206H0.493109C0.476555 0.236206 0.463135 0.249616 0.463135 0.266159V102.446C0.463135 102.462 0.476555 102.476 0.493109 102.476H102.746C102.762 102.476 102.776 102.462 102.776 102.446V0.266159C102.776 0.249616 102.762 0.236206 102.746 0.236206Z" fill="#066DA5"/>
<path d="M59.6128 49.1593H68.0056V41.5712H59.6128V49.1593ZM49.6213 49.1593H58.0141V41.5712H49.6213V49.1593ZM39.8297 49.1593H48.2225V41.5712H39.8297V49.1593ZM30.038 49.1593H38.231V41.5712H30.038V49.1593ZM20.0465 49.1593H28.4394V41.5712H20.0465V49.1593ZM30.038 39.9738H38.231V32.3857H30.038V39.9738ZM39.8297 39.9738H48.2225V32.3857H39.8297V39.9738ZM49.6213 39.9738H58.0141V32.3857H49.6213V39.9738ZM49.6213 30.7882H58.0141V23.2001H49.6213V30.7882ZM94.7828 45.7647C94.7828 45.7647 91.1858 42.37 83.7921 43.5681C82.9928 37.7772 76.7981 34.3825 76.7981 34.3825C76.7981 34.3825 71.0031 41.3716 75.1995 49.1593C74.0005 49.7584 72.0022 50.5571 69.0048 50.5571H14.0516C13.0525 54.3512 13.0525 79.5116 40.629 79.5116C60.4121 79.5116 75.1995 70.3261 82.1935 53.5524C92.5846 54.3512 94.7828 45.7647 94.7828 45.7647Z" fill="white"/>
</svg>
