<svg width="104" height="60" viewBox="0 0 104 60" fill="none" xmlns="http://www.w3.org/2000/svg">
<path d="M103.246 58.0133C99.5242 58.959 97.2221 58.0548 95.1567 54.9557L80.4684 34.6484L78.3455 31.8368L61.1921 55.0228C59.2322 57.812 57.1763 59.0261 53.5186 58.0388L75.4839 28.5747L55.0341 1.96055C58.5511 1.27683 60.9811 1.62508 63.1392 4.77213L78.3742 25.3318L93.7211 4.88396C95.6875 2.09474 97.8009 1.03401 101.331 2.06279L93.4014 12.5679L82.6586 26.5459C81.3797 28.1434 81.5555 29.2361 82.7321 30.7793L103.246 58.0133ZM0.958684 28.0827L2.75555 19.2518C7.64738 1.77524 27.6943 -5.48695 41.5193 5.31209C49.5988 11.6637 51.6067 20.648 51.207 30.7122H5.66507C4.98085 48.8277 18.0289 59.7609 34.6643 54.1825C40.4993 52.224 43.9364 47.6584 45.6565 41.9457C46.5294 39.083 47.9746 38.6357 50.6667 39.4536C49.2918 46.5976 46.1905 52.5658 39.6361 56.3008C29.8428 61.892 15.8644 60.0836 8.51064 52.3134C4.13038 47.8053 2.32072 42.0927 1.50861 35.9839C1.38072 34.9743 1.12494 34.0126 0.933105 33.0445C0.950158 31.3916 0.958684 29.7388 0.958684 28.0859V28.0827ZM5.7482 26.8686H46.9035C46.6349 13.7692 38.4723 4.46542 27.317 4.38554C15.0714 4.28969 6.27894 13.373 5.7482 26.8686V26.8686Z" fill="black"/>
</svg>
