<svg width="69" height="104" viewBox="0 0 69 104" fill="none" xmlns="http://www.w3.org/2000/svg">
<path d="M17.1271 103.238C21.6496 103.238 25.9869 101.443 29.1848 98.2469C32.3827 95.0513 34.1792 90.7172 34.1792 86.1979V69.158H17.1271C12.6046 69.158 8.26732 70.9533 5.06942 74.1489C1.87153 77.3445 0.0749741 81.6787 0.0749741 86.1979C0.0749741 90.7172 1.87153 95.0513 5.06942 98.2469C8.26732 101.443 12.6046 103.238 17.1271 103.238Z" fill="#0ACF83"/>
<path d="M0.0749741 52.1181C0.0749741 47.5988 1.87153 43.2646 5.06942 40.069C8.26732 36.8734 12.6046 35.0782 17.1271 35.0782H34.1792V69.158H17.1271C12.6046 69.158 8.26732 67.3627 5.06942 64.1671C1.87153 60.9715 0.0749741 56.6373 0.0749741 52.1181Z" fill="#A259FF"/>
<path d="M0.0749512 18.0383C0.0749498 13.5214 1.86968 9.18923 5.06469 5.99401C8.2597 2.79879 12.5936 1.00196 17.1137 0.998435H34.1659V35.0782L17.1271 35.0782C12.6046 35.0782 8.26729 33.283 5.0694 30.0874C1.87151 26.8918 0.0749512 22.5576 0.0749512 18.0383Z" fill="#F24E1E"/>
<path d="M34.1795 0.998413H51.2316C55.7541 0.998413 60.0914 2.79368 63.2893 5.98928C66.4871 9.18488 68.2837 13.519 68.2837 18.0383C68.2837 22.5576 66.4871 26.8917 63.2893 30.0873C60.0914 33.2829 55.7541 35.0782 51.2316 35.0782L34.1792 35.0782L34.1795 0.998413Z" fill="#FF7262"/>
<path d="M68.2837 52.1181C68.2837 56.6373 66.4871 60.9715 63.2893 64.1671C60.0914 67.3627 55.7541 69.158 51.2316 69.158C46.7091 69.158 42.3718 67.3627 39.1739 64.1671C35.976 60.9715 34.1795 56.6373 34.1795 52.1181C34.1795 47.5988 35.976 43.2646 39.1739 40.069C42.3718 36.8734 46.7091 35.0782 51.2316 35.0782C55.7541 35.0782 60.0914 36.8734 63.2893 40.069C66.4871 43.2646 68.2837 47.5988 68.2837 52.1181Z" fill="#1ABCFE"/>
</svg>
