<svg width="91" height="103" viewBox="0 0 91 103" fill="none" xmlns="http://www.w3.org/2000/svg">
<path d="M8.2106 92.0186L0 0H90.2142L81.9972 92.0059L45.0496 102.236L8.2106 92.0186Z" fill="#E44D26"/>
<path d="M74.9598 86.1462L81.9842 7.52412H45.1068V94.418L74.9598 86.1462Z" fill="#F16529"/>
<path d="M16.7857 18.8088L19.8327 52.9376H45.1071V41.6529H30.1631L29.1303 30.0967H45.1071V18.8088H16.7857ZM45.1071 70.9254L45.0592 70.9381L32.4811 67.5451L31.6818 58.5448H20.3378L21.9205 76.2642L45.056 82.6541L45.1071 82.6381V70.9254Z" fill="#EBEBEB"/>
<path d="M45.0687 52.9376H58.9769L57.698 67.5706L45.1007 70.9669V82.7084L68.2553 76.2961L71.3567 41.6465H45.1071L45.0687 52.9376ZM73.0896 21.8377L73.3582 18.8088H45.0623V30.0935H72.3415L72.5653 27.5567L73.0896 21.8377Z" fill="white"/>
</svg>
