<svg width="50" height="50" viewBox="0 0 50 50" fill="none" xmlns="http://www.w3.org/2000/svg">
<path d="M44.6429 0H5.35714C2.39955 0 0 2.39955 0 5.35714V44.6429C0 47.6004 2.39955 50 5.35714 50H44.6429C47.6004 50 50 47.6004 50 44.6429V5.35714C50 2.39955 47.6004 0 44.6429 0ZM15.6696 32.1652H10.4688C9.85491 32.1652 9.49777 31.5737 9.79911 31.0156L15.3013 21.3393C15.3125 21.3393 15.3125 21.3281 15.3013 21.317L11.7969 15.2902C11.4621 14.6652 11.8192 14.1629 12.4665 14.1629H17.6674C18.2478 14.1629 18.7277 14.4866 19.1071 15.1339L22.6674 21.3058C22.5223 21.5625 20.6585 24.8438 17.0759 31.1496C16.6853 31.8415 16.2165 32.1652 15.6696 32.1652ZM40.1897 8.27009L28.7165 28.4375V28.4598L36.0268 41.7411C36.3393 42.3103 36.0379 42.8683 35.3571 42.8683H30.1563C29.5424 42.8683 29.0737 42.5446 28.7165 41.8973L21.3504 28.471C21.6071 28.0134 25.4576 21.2277 32.8906 8.125C33.2589 7.47768 33.7165 7.15402 34.2857 7.15402H39.5201C40.1562 7.14286 40.5022 7.67857 40.1897 8.27009Z" fill="#4338CA"/>
</svg>
