<svg width="47" height="103" viewBox="0 0 47 103" fill="none" xmlns="http://www.w3.org/2000/svg">
<path d="M22.7693 0.515432L25.4997 5.64018C26.1136 6.5859 26.7787 7.42298 27.562 8.20256C29.848 10.487 32.019 12.88 33.9693 15.4424C38.5958 21.5128 41.7163 28.2543 43.9448 35.5452C45.2813 39.999 46.0071 44.5678 46.0614 49.1878C46.2852 62.9997 41.5469 74.8594 31.9934 84.7159C30.4331 86.2751 28.7642 87.7192 26.9737 89.0036C26.0273 89.0036 25.5797 88.2783 25.1896 87.6106C24.4638 86.3869 24.0194 84.9907 23.7956 83.6009C23.4599 81.9299 23.2393 80.259 23.348 78.5337V77.7541C23.2712 77.5879 22.4368 0.908415 22.7693 0.515432Z" fill="#599636"/>
<path d="M22.7692 0.346123C22.6573 0.122474 22.5454 0.291808 22.4335 0.400438C22.4878 1.51868 22.0977 2.51552 21.4871 3.46762C20.8156 4.41333 19.9268 5.13859 19.0348 5.91817C14.079 10.2058 10.1783 15.3849 7.05458 21.1774C2.89813 28.9731 0.755958 37.328 0.148476 46.1238C-0.129687 49.2964 1.15242 60.4916 2.15317 63.7218C4.88364 72.2971 9.78825 79.4826 16.1412 85.7192C17.7015 87.2208 19.3705 88.6138 21.097 89.9525C21.599 89.9525 21.6533 89.5053 21.7684 89.173C21.9885 88.462 22.1563 87.7358 22.2704 87.0004L23.3894 78.6487L22.7692 0.346123Z" fill="#6CAC48"/>
<path d="M25.4993 92.3967C25.6112 91.1187 26.225 90.058 26.8933 89.0004C26.2218 88.7225 25.7231 88.1697 25.333 87.5531C24.9973 86.9972 24.7191 86.3294 24.5017 85.716C23.7216 83.3773 23.5553 80.9235 23.3315 78.5337V77.0863C23.0533 77.31 22.9958 79.2014 22.9958 79.4826C22.8331 82.0085 22.4977 84.5203 21.9919 87.0004C21.8256 88.0036 21.7137 89.0036 21.0966 89.895C21.0966 90.0069 21.0966 90.1187 21.151 90.2848C22.1549 93.237 22.4299 96.2435 22.5993 99.3074V100.426C22.5993 101.761 22.545 101.48 23.6544 101.927C24.1021 102.093 24.6008 102.151 25.0485 102.483C25.3842 102.483 25.4385 102.205 25.4385 101.982L25.2723 100.145V95.0198C25.2179 94.1252 25.3842 93.237 25.4961 92.3999L25.4993 92.3967Z" fill="#C2BFBF"/>
</svg>
