<svg width="93" height="103" viewBox="0 0 93 103" fill="none" xmlns="http://www.w3.org/2000/svg">
<path d="M42.3321 1.3284C44.9 -0.12465 48.1741 -0.131066 50.6779 1.3284L89.0172 22.9253C91.415 24.2725 93.02 26.9445 92.9975 29.7063V73.0092C93.0136 75.8864 91.2513 78.6161 88.7219 79.9376L50.588 101.435C49.2837 102.155 47.8102 102.514 46.3206 102.472C44.8309 102.431 43.3795 101.992 42.117 101.201L30.6736 94.5933C29.8936 94.1282 29.0173 93.7593 28.4652 93.0055C28.9531 92.3511 29.8198 92.2678 30.526 91.9791C32.1181 91.4723 33.5754 90.696 35.0391 89.8749C35.4083 89.6183 35.8609 89.7145 36.214 89.9454L45.9721 95.5844C46.6687 95.9854 47.3749 95.4561 47.9719 95.1193L85.4157 74.0035C85.8779 73.779 86.1347 73.2915 86.0962 72.7846V29.8987C86.1476 29.3213 85.8169 28.7953 85.2937 28.5611L47.2561 7.15666C47.0369 7.00515 46.7768 6.92373 46.5103 6.92315C46.2438 6.92258 45.9833 7.00289 45.7635 7.15345L7.78045 28.6028C7.26686 28.837 6.91377 29.3566 6.97797 29.934V72.8199C6.93303 73.3267 7.20266 73.8047 7.6681 74.0228L17.8179 79.7484C19.7246 80.7748 22.0646 81.3522 24.1639 80.5984C25.0826 80.2524 25.8734 79.6341 26.4305 78.8263C26.9876 78.0186 27.2843 77.0599 27.2807 76.0789L27.2904 33.4496C27.2454 32.8177 27.8425 32.2948 28.4556 32.359H33.3347C33.9766 32.3429 34.4806 33.0229 34.3939 33.658L34.3843 76.5568C34.3875 80.3675 32.8211 84.5117 29.2934 86.3818C24.9471 88.6271 19.5737 88.1556 15.2788 85.9969L4.36509 79.9665C1.79715 78.6835 0.073417 75.9121 0.0894666 73.0381V29.7351C0.100144 28.3277 0.487337 26.9488 1.21091 25.7412C1.93448 24.5337 2.96809 23.5415 4.20459 22.8676L42.3321 1.3284ZM53.3871 31.3454C58.9306 31.0246 64.8657 31.1336 69.854 33.8633C73.7155 35.9547 75.8565 40.3427 75.9272 44.6345C75.818 45.2119 75.2146 45.5327 74.6624 45.491C73.0575 45.4878 71.4461 45.5134 69.8347 45.4814C69.151 45.507 68.7562 44.8783 68.6695 44.2753C68.2073 42.2224 67.087 40.192 65.1546 39.2008C62.1887 37.7157 58.7476 37.7895 55.512 37.8215C53.1495 37.9498 50.6105 38.1519 48.6107 39.5376C47.0699 40.5897 46.6077 42.7452 47.1566 44.4196C47.6702 45.6481 49.0922 46.0427 50.251 46.4084C56.934 48.1533 64.0119 48.0122 70.5698 50.28C73.2822 51.2166 75.9368 53.0385 76.8677 55.8773C78.081 59.6815 77.5514 64.2299 74.8454 67.2836C72.6498 69.7984 69.4527 71.1327 66.2589 71.909C62.0121 72.8552 57.6081 72.8777 53.2972 72.4543C49.2431 71.9924 45.0252 70.9274 41.8955 68.1689C39.2185 65.8466 37.9152 62.2284 38.0436 58.7385C38.0757 58.1483 38.6631 57.7377 39.2313 57.7858H44.0462C44.6946 57.7409 45.1697 58.299 45.2018 58.9085C45.5003 60.833 46.2354 62.918 47.943 64.0407C51.2364 66.1641 55.3676 66.0166 59.136 66.0775C62.2593 65.9396 65.7645 65.8979 68.3164 63.8322C69.6646 62.655 70.0594 60.6887 69.6967 58.9951C69.3019 57.5645 67.7707 56.9005 66.4868 56.429C59.8904 54.344 52.7322 55.101 46.2 52.7402C43.5486 51.8036 40.9839 50.033 39.9664 47.3097C38.5444 43.4606 39.196 38.6908 42.1908 35.7398C45.0798 32.8048 49.3169 31.6725 53.3293 31.2684L53.3871 31.3454Z" fill="#8CC84B"/>
</svg>
