<svg width="104" height="103" viewBox="0 0 104 103" fill="none" xmlns="http://www.w3.org/2000/svg">
<path d="M92.421 20.1111C86.2365 12.1085 77.8161 6.11822 68.2245 2.89803C58.633 -0.322171 48.3012 -0.627681 38.5359 2.02013C28.7706 4.66795 20.0104 10.1501 13.3633 17.7734C6.71608 25.3966 2.48052 34.8185 1.19224 44.8473C-0.0960312 54.8762 1.62085 65.0616 6.12576 74.1153C10.6307 83.1691 17.7212 90.6845 26.5007 95.7111C35.2802 100.738 45.3542 103.05 55.4487 102.355C65.5431 101.66 75.2046 97.9888 83.2112 91.8065C105.56 74.5472 109.685 42.452 92.4194 20.1111H92.421Z" fill="#FF6C37"/>
<path d="M69.186 32.808L47.6156 54.5338L41.52 48.2717C62.7499 27.057 64.8809 28.974 69.1876 32.808H69.186Z" fill="white"/>
<path d="M47.6162 55.1281C47.4251 55.1234 47.2427 55.0476 47.1046 54.9156L40.9658 48.7812C40.8276 48.6383 40.7504 48.4473 40.7504 48.2485C40.7504 48.0497 40.8276 47.8587 40.9658 47.7157C61.8968 26.7998 64.7535 27.779 69.6981 32.252C69.866 32.3862 69.9603 32.5907 69.9539 32.8063C69.9859 33.014 69.906 33.2265 69.7413 33.3607L48.1709 54.9172C48.019 55.0562 47.8224 55.1313 47.6162 55.1297V55.1281ZM42.5853 48.2701L47.6162 53.2974L68.0787 32.8495C67.3722 31.9647 66.3641 31.3712 65.2471 31.1826C64.1302 30.994 62.9829 31.2234 62.0247 31.8271C58.3158 33.4885 52.3481 38.5573 42.5853 48.2701Z" fill="#FF6C37"/>
<path d="M53.7976 60.5404L47.9146 54.5338L69.485 33.2329C75.2832 38.8992 66.6714 48.3563 53.7976 60.5388V60.5404Z" fill="white"/>
<path d="M53.7982 61.3072C53.6095 61.2922 53.4304 61.2178 53.2866 61.0947L47.2758 55.2159C47.1856 54.9975 47.1856 54.7523 47.2758 54.5338C47.2118 54.3549 47.2118 54.1584 47.2758 53.9795L68.8462 32.4246C69.1579 32.1322 69.6423 32.1322 69.954 32.4246C71.3688 33.7249 72.1441 35.5748 72.085 37.4934C72.085 43.2444 65.5194 50.4858 54.3513 61.0516C54.2021 61.1991 54.0058 61.2896 53.7966 61.3072H53.7982ZM49.0231 54.5338L53.8398 59.3455C62.3653 51.2941 70.5087 42.9872 70.5503 37.364C70.5967 36.1719 70.2023 35.0045 69.4425 34.0843L49.0231 54.5338Z" fill="#FF6C37"/>
<path d="M41.6899 48.3994L45.9535 52.6599C45.9807 52.6839 46.0025 52.7134 46.0174 52.7465C46.0323 52.7795 46.0401 52.8154 46.0401 52.8516C46.0401 52.8879 46.0323 52.9237 46.0174 52.9568C46.0025 52.9898 45.9807 53.0193 45.9535 53.0433L36.9579 54.9603C36.5854 55.0402 36.2066 54.8613 36.0275 54.5258C35.8485 54.1903 35.9156 53.775 36.1906 53.5114L41.4341 48.3148C41.4341 48.3148 41.6052 48.3148 41.6899 48.3994Z" fill="white"/>
<path d="M36.7452 55.8118C36.461 55.8083 36.1824 55.7319 35.9361 55.5901C35.6898 55.4483 35.484 55.2458 35.3384 55.0019C35.0027 54.3677 35.1226 53.5865 35.6373 53.0849L40.8377 47.8451C41.0252 47.6776 41.268 47.585 41.5195 47.585C41.771 47.585 42.0138 47.6776 42.2013 47.8451L46.4649 52.1057C46.7175 52.3453 46.8166 52.7079 46.7207 53.0434C46.6247 53.3789 46.3434 53.6456 45.9965 53.7255L37.0009 55.6425L36.7452 55.8118ZM41.5203 49.3372L36.7036 54.1504L44.676 52.4459L41.5203 49.3372Z" fill="#FF6C37"/>
<path d="M80.6548 20.8364C77.5694 17.8618 72.7224 17.7372 69.4867 20.544C66.2511 23.3508 65.698 28.1688 68.2174 31.6354C70.7369 35.1019 75.4864 36.0732 79.1633 33.8719L73.365 28.0778L80.6548 20.8364Z" fill="white"/>
<path d="M74.9002 35.8304C73.1276 35.8077 71.4008 35.2642 69.9351 34.2677C68.4694 33.2712 67.3296 31.8657 66.6576 30.2264C65.2828 26.8749 66.0438 23.0281 68.576 20.4529C70.2828 18.7787 72.5789 17.8408 74.9705 17.8408C77.3622 17.8408 79.6583 18.7787 81.3651 20.4529C81.5281 20.5903 81.6209 20.7932 81.6209 21.0073C81.6205 21.1126 81.5974 21.2166 81.5533 21.3122C81.5092 21.4079 81.445 21.4929 81.3651 21.5616L74.459 28.0794L79.7025 33.2345C79.7875 33.3155 79.8513 33.4162 79.8883 33.5275C79.9254 33.6389 79.9346 33.7577 79.9151 33.8735C79.9025 33.9852 79.8654 34.0927 79.8066 34.1885C79.7478 34.2843 79.6686 34.366 79.5746 34.4278C78.1659 35.3077 76.5465 35.7932 74.8858 35.8336L74.9002 35.8304ZM74.9002 19.3012C71.8628 19.3171 69.1451 21.1431 68.0053 23.9339C66.8655 26.7247 67.4857 29.9372 69.6151 32.0811C71.7829 34.2585 75.0505 34.8847 77.8849 33.6578L72.854 28.6305C72.6861 28.4963 72.5918 28.2918 72.5982 28.0762C72.6046 27.8765 72.6973 27.6896 72.854 27.565L79.5043 20.8763C78.1822 19.8635 76.566 19.3107 74.9002 19.2996V19.3012Z" fill="#FF6C37"/>
<path d="M80.7825 20.9642L73.4928 28.2056L79.291 33.9997C79.8746 33.6649 80.4179 33.2645 80.9104 32.8064C84.0693 29.4516 84.0118 24.231 80.7825 20.9642Z" fill="white"/>
<path d="M79.1618 34.6387C79.066 34.6439 78.9703 34.6275 78.8818 34.5907C78.7932 34.5539 78.7141 34.4977 78.6502 34.4262L72.852 28.6321C72.6841 28.4979 72.5898 28.2935 72.5962 28.0778C72.6026 27.8781 72.6953 27.6912 72.852 27.5666L80.0986 20.453C80.1686 20.3475 80.2636 20.261 80.3752 20.2012C80.4867 20.1414 80.6114 20.11 80.738 20.11C80.8647 20.11 80.9893 20.1414 81.1009 20.2012C81.2125 20.261 81.3075 20.3475 81.3775 20.453C82.2282 21.2859 82.9041 22.2801 83.3654 23.3773C83.8268 24.4746 84.0645 25.6528 84.0645 26.8429C84.0645 28.0331 83.8268 29.2113 83.3654 30.3085C82.9041 31.4058 82.2282 32.4 81.3775 33.2329C80.8756 33.7648 80.3014 34.2235 79.6717 34.5956C79.5132 34.6754 79.3299 34.6909 79.1602 34.6387H79.1618ZM74.473 28.0794L79.2897 32.8926C79.621 32.6606 79.9347 32.4043 80.2281 32.1258C81.644 30.7147 82.4415 28.7997 82.4454 26.8014C82.4486 25.0131 81.7963 23.2855 80.6117 21.945L74.473 28.0794Z" fill="#FF6C37"/>
<path d="M70.0815 33.7025C68.8825 32.5779 67.0169 32.5779 65.8179 33.7025L46.508 52.9555L49.7052 56.1936L70.1246 38.3017C70.7561 37.6994 71.1094 36.864 71.0998 35.9917C71.0902 35.1195 70.7225 34.2904 70.0815 33.7009V33.7025Z" fill="white"/>
<path d="M49.534 56.962C49.343 56.9573 49.1606 56.8816 49.0225 56.7496L45.782 53.5115C45.6438 53.3685 45.5666 53.1775 45.5666 52.9787C45.5666 52.7799 45.6438 52.5889 45.782 52.4459L65.0936 33.2329C66.6251 31.7057 69.1061 31.7057 70.636 33.2329C71.4034 33.9997 71.819 35.0461 71.7871 36.1292C71.7423 37.2059 71.2659 38.2187 70.465 38.9407L50.0456 56.8326C49.8969 56.9381 49.7147 56.9828 49.534 56.9604V56.962ZM47.2752 52.9555L49.4062 55.1281L69.4419 37.7043C69.9374 37.273 70.2332 36.6563 70.2524 35.9998C70.2715 35.3432 70.0126 34.701 69.5282 34.2537C68.5962 33.3272 67.0919 33.3272 66.1599 34.2537L47.2752 52.9555Z" fill="#FF6C37"/>
<path d="M31.5452 74.8954C31.4906 74.9695 31.4612 75.0591 31.4612 75.151C31.4612 75.243 31.4906 75.3326 31.5452 75.4066L32.3972 79.1128C32.4708 79.5553 32.2582 79.9962 31.8665 80.2311C31.6766 80.3421 31.4563 80.39 31.2374 80.3679C31.0184 80.3458 30.8122 80.2548 30.6483 80.1081L24.8085 74.4849L43.0122 56.1505H49.322L53.5856 60.411C46.9348 66.2217 39.5191 71.0952 31.5452 74.8954Z" fill="white"/>
<path d="M31.161 81.1576C30.6782 81.148 30.2018 80.9499 29.8821 80.6032L24.2981 75.0232C24.1302 74.889 24.0359 74.6845 24.0423 74.4689C24.0487 74.2692 24.1414 74.0823 24.2981 73.9577L42.628 55.5977C42.7307 55.4887 42.8648 55.4144 43.0117 55.3853H49.3631C49.5286 55.3268 49.7091 55.3268 49.8746 55.3853L54.1382 59.6458C54.3029 59.7975 54.3828 60.0212 54.3508 60.2416C54.3538 60.3475 54.3323 60.4526 54.2879 60.5488C54.2436 60.6449 54.1776 60.7295 54.095 60.796L53.7545 61.0947C47.0769 66.6577 39.7303 71.3657 31.8852 75.1095L32.6957 78.5601C32.7584 78.8262 32.7608 79.103 32.7027 79.3703C32.6447 79.6375 32.5277 79.8884 32.3603 80.1047C32.1928 80.321 31.9792 80.4972 31.7349 80.6205C31.4907 80.7438 31.222 80.811 30.9484 80.8173L31.161 81.1576ZM25.9606 74.4689L30.99 79.5377C31.0368 79.5795 31.0974 79.6026 31.1602 79.6026C31.223 79.6026 31.2836 79.5795 31.3305 79.5377C31.3618 79.4942 31.3787 79.442 31.3787 79.3884C31.3787 79.3347 31.3618 79.2825 31.3305 79.239L30.4784 75.5328C30.3409 74.9849 30.6063 74.4146 31.1178 74.1702C38.752 70.4763 45.9092 65.8701 52.4325 60.4525L48.9362 56.9588H43.2243L25.9606 74.4689Z" fill="#FF6C37"/>
<path d="M20.4183 78.8572L24.6818 74.5967L31.2474 81.1576L20.8035 80.4339C20.4358 80.4068 20.1241 80.1464 20.0362 79.7853C19.9483 79.4243 20.1033 79.0505 20.4199 78.8588L20.4183 78.8572Z" fill="white"/>
<path d="M31.3734 81.7966L20.9711 81.0729C20.354 81.0154 19.8233 80.5937 19.6059 80.0298C19.3885 79.4659 19.5212 78.7965 19.948 78.346L24.2116 74.0855C24.3546 73.9474 24.5458 73.8702 24.7447 73.8702C24.9436 73.8702 25.1348 73.9474 25.2778 74.0855L31.8003 80.6033C31.9857 80.8589 31.9857 81.2007 31.8003 81.4547C31.7012 81.6145 31.5509 81.7343 31.3734 81.795V81.7966ZM20.9711 79.4115L29.4966 79.9659L24.8078 75.5776L20.9711 79.4115Z" fill="#FF6C37"/>
<path d="M49.918 56.6649L41.3062 57.9861L46.2939 53.045L49.918 56.6649Z" fill="white"/>
<path d="M41.3058 58.7927C41.0132 58.8007 40.7462 58.633 40.6231 58.3662C40.5324 58.2428 40.4834 58.0936 40.4834 57.9405C40.4834 57.7873 40.5324 57.6381 40.6231 57.5147L45.5677 52.5306C45.8795 52.2382 46.3638 52.2382 46.6756 52.5306L50.3013 56.1505C50.3737 56.2653 50.4121 56.3982 50.4121 56.5339C50.4121 56.6696 50.3737 56.8025 50.3013 56.9173C50.2657 57.0572 50.1906 57.1839 50.0848 57.2822C49.9791 57.3805 49.8472 57.4462 49.705 57.4716L41.1795 58.7927H41.3058ZM46.2935 54.1488L43.5231 56.9173L48.2982 56.1936L46.2935 54.1488Z" fill="#FF6C37"/>
<path d="M49.9176 56.6617L43.9068 57.4284C43.7459 57.4649 43.5776 57.4486 43.4267 57.382C43.2758 57.3154 43.1505 57.2019 43.0692 57.0585C42.9879 56.9151 42.9551 56.7493 42.9755 56.5857C42.9959 56.4222 43.0685 56.2695 43.1826 56.1505L46.2951 53.0401L49.9176 56.6617Z" fill="white"/>
<path d="M43.7362 58.24C43.1687 58.2352 42.6491 57.9253 42.3725 57.43C42.2097 57.1384 42.1466 56.8017 42.1928 56.471C42.239 56.1403 42.3916 55.8337 42.628 55.5977L45.7409 52.4874C46.0526 52.1951 46.537 52.1951 46.8487 52.4874L50.4728 56.1089C50.5806 56.211 50.6564 56.342 50.6911 56.4863C50.7258 56.6306 50.7179 56.7818 50.6683 56.9216C50.6188 57.0615 50.5296 57.1839 50.4118 57.2742C50.294 57.3644 50.1524 57.4186 50.0044 57.43L44.0367 58.1968L43.7362 58.24ZM43.7362 56.6632L48.2555 56.1089L46.2524 54.1073L43.6946 56.6632H43.7362ZM80.8245 25.8636C80.7442 25.7292 80.6173 25.6289 80.4679 25.5818C80.3185 25.5347 80.157 25.544 80.014 25.608C79.9435 25.6438 79.8808 25.6933 79.8297 25.7536C79.7786 25.814 79.7402 25.884 79.7167 25.9595C79.6687 26.1112 79.6847 26.2758 79.7582 26.418C80.0572 27.0458 79.9741 27.7886 79.5456 28.3349C79.4337 28.4404 79.3858 28.5857 79.3858 28.7391C79.3873 28.8889 79.4442 29.0329 79.5456 29.1433C79.655 29.1864 79.7767 29.1864 79.8861 29.1433C79.9854 29.1682 80.0896 29.1655 80.1874 29.1353C80.2852 29.1052 80.3729 29.0488 80.4409 28.9723C80.7919 28.5429 81.0142 28.0229 81.0821 27.4725C81.15 26.9222 81.0607 26.3638 80.8245 25.862V25.8636Z" fill="#FF6C37"/>
</svg>
