<svg width="94" height="69" viewBox="0 0 94 69" fill="none" xmlns="http://www.w3.org/2000/svg">
<path d="M22.0064 0.484754C10.3753 0.414278 0 10.1883 0 22.4894C0 34.6365 9.85747 44.494 22.0064 44.494C22.6293 44.494 23.2521 44.4473 23.8627 44.3997C18.4111 51.0376 10.1515 55.2783 0.928953 55.2783V68.4834C24.5802 68.4834 43.813 49.1699 43.813 25.4266C45.071 12.01 34.5325 0.566734 22.008 0.484917L22.0064 0.484754Z" fill="#4338CA"/>
<path d="M51.0139 55.2771V68.4822C74.6652 68.4822 93.898 49.1688 93.898 25.4254C95.1552 12.0089 84.6043 0.555105 72.0909 0.483777C60.4591 0.413301 50.0845 10.1881 50.0845 22.4884C50.0845 34.6355 59.9419 44.493 72.0909 44.493C72.7138 44.493 73.3366 44.4463 73.9472 44.3988C68.4849 51.0358 60.2247 55.2773 51.0134 55.2773L51.0139 55.2771Z" fill="#4338CA"/>
</svg>
