<svg width="121" height="108" viewBox="0 0 121 108" fill="none" xmlns="http://www.w3.org/2000/svg">
<path d="M98.3363 37.666L99.0472 35.5995L99.0472 35.5995L98.3363 37.666ZM96.9839 71.1485L97.6708 73.2231L97.6708 73.2231L96.9839 71.1485ZM22.7726 71.1124L22.0662 73.1805L22.0664 73.1805L22.7726 71.1124ZM21.6555 37.7685L20.9365 35.7048L20.9365 35.7048L21.6555 37.7685ZM41.1593 43.1211L40.9624 45.2976L42.3538 45.4235L43.0521 44.2135L41.1593 43.1211ZM65.0106 12.9351L66.4447 14.5842L66.4447 14.5842L65.0106 12.9351ZM89.0456 4.01664L90.1367 2.12313L90.1367 2.12312L89.0456 4.01664ZM93.3606 30.8325L91.2203 30.3912L91.2202 30.3917L93.3606 30.8325ZM79.3457 65.127L81.2385 66.2193L81.2385 66.2193L79.3457 65.127ZM56.2563 95.0534L54.8186 93.4075L54.8185 93.4075L56.2563 95.0534ZM31.2728 104.124L32.364 102.231L32.3634 102.23L31.2728 104.124ZM26.7928 79.363L24.6459 78.9551L26.7928 79.363ZM41.157 43.1209L41.3539 40.9444L39.9623 40.8185L39.264 42.0288L41.157 43.1209ZM41.1776 65.1591L43.0686 64.0635L43.0686 64.0634L41.1776 65.1591ZM26.9189 29.4346L24.7742 29.8545L24.7743 29.8549L26.9189 29.4346ZM31.1903 4.1723L32.2845 6.06402L32.2846 6.06396L31.1903 4.1723ZM56.5941 13.8289L55.1437 15.4636L55.1437 15.4636L56.5941 13.8289ZM79.3279 43.0894L77.4369 44.1849V44.1849L79.3279 43.0894ZM93.7428 78.0246L95.8865 77.6L95.8865 77.6L93.7428 78.0246ZM89.1297 104.184L88.0354 102.292L88.0354 102.292L89.1297 104.184ZM65.4246 95.6962L66.8495 94.0392L66.8494 94.0391L65.4246 95.6962ZM68.8543 54.0168C68.8543 58.7618 65.0045 62.6111 60.2522 62.6111V66.9819C67.4155 66.9819 73.2251 61.1787 73.2251 54.0168H68.8543ZM60.2522 62.6111C55.4999 62.6111 51.6501 58.7618 51.6501 54.0168H47.2793C47.2793 61.1787 53.0889 66.9819 60.2522 66.9819V62.6111ZM51.6501 54.0168C51.6501 49.2717 55.4999 45.4224 60.2522 45.4224V41.0516C53.0889 41.0516 47.2793 46.8548 47.2793 54.0168H51.6501ZM60.2522 45.4224C65.0045 45.4224 68.8543 49.2717 68.8543 54.0168H73.2251C73.2251 46.8548 67.4155 41.0516 60.2522 41.0516V45.4224ZM60.2526 34.2846C74.5518 34.2846 87.7578 36.338 97.6253 39.7326L99.0472 35.5995C88.6248 32.014 74.9208 29.9138 60.2526 29.9138V34.2846ZM97.6253 39.7326C103.569 41.7773 108.245 44.3103 111.39 46.9324C114.595 49.6051 115.889 52.0856 115.889 54.0167H120.26C120.26 50.1763 117.797 46.584 114.189 43.5755C110.52 40.5164 105.327 37.76 99.0472 35.5995L97.6253 39.7326ZM115.889 54.0167C115.889 56.0582 114.496 58.6971 111.063 61.5206C107.697 64.2902 102.686 66.9585 96.297 69.0738L97.6708 73.2231C104.408 70.9925 109.943 68.1022 113.84 64.896C117.672 61.7437 120.26 57.9897 120.26 54.0167H115.889ZM96.2971 69.0738C86.6614 72.2639 73.8501 73.9637 60.2526 73.9637V78.3345C74.1526 78.3345 87.459 76.604 97.6708 73.2231L96.2971 69.0738ZM60.2526 73.9637C46.2842 73.9637 33.2006 72.364 23.4788 69.0442L22.0664 73.1805C32.4157 76.7145 46.0287 78.3345 60.2526 78.3345V73.9637ZM23.479 69.0443C17.3168 66.9396 12.4957 64.2593 9.2602 61.4904C5.96284 58.6686 4.61387 56.0311 4.61387 54.0167H0.243067C0.243067 57.9022 2.71778 61.6443 6.41832 64.8112C10.1807 68.031 15.5317 70.9486 22.0662 73.1805L23.479 69.0443ZM4.61387 54.0167C4.61387 52.0789 5.85812 49.6187 8.94284 46.9814C11.9781 44.3864 16.5213 41.8715 22.3745 39.8323L20.9365 35.7048C14.7383 37.8643 9.66793 40.6111 6.10257 43.6593C2.58661 46.6652 0.243067 50.2298 0.243067 54.0167H4.61387ZM22.3745 39.8323C32.2737 36.3835 45.8078 34.2846 60.2507 34.2846V29.9138C45.4432 29.9138 31.403 32.0584 20.9365 35.7048L22.3745 39.8323ZM60.2507 34.2846H60.2526V29.9138H60.2507V34.2846ZM43.0521 44.2135C50.1956 31.8358 58.5724 21.4301 66.4447 14.5842L63.5766 11.2861C55.2613 18.5172 46.5946 29.3312 39.2665 42.0288L43.0521 44.2135ZM66.4447 14.5842C71.1862 10.4609 75.7182 7.6783 79.5625 6.26596C83.4806 4.82649 86.2789 4.94464 87.9545 5.91016L90.1367 2.12312C86.8091 0.205624 82.4659 0.542844 78.0552 2.16328C73.5707 3.81085 68.5868 6.92902 63.5766 11.2861L66.4447 14.5842ZM87.9545 5.91015C89.7253 6.93061 91.3163 9.45612 92.0492 13.8369C92.7682 18.1343 92.5782 23.8044 91.2203 30.3912L95.501 31.2738C96.9331 24.3272 97.1926 18.0916 96.3601 13.1157C95.5415 8.22301 93.58 4.1073 90.1367 2.12313L87.9545 5.91015ZM91.2202 30.3917C89.1742 40.3257 84.246 52.2638 77.4529 64.0346L81.2385 66.2193C88.1826 54.1869 93.3324 41.8034 95.5011 31.2733L91.2202 30.3917ZM77.4529 64.0346C70.4746 76.1263 62.5521 86.6526 54.8186 93.4075L57.6939 96.6993C65.9274 89.5078 74.1323 78.5325 81.2385 66.2193L77.4529 64.0346ZM54.8185 93.4075C49.9157 97.6903 45.1837 100.525 41.1669 101.942C37.0734 103.387 34.1117 103.238 32.364 102.231L30.1816 106.018C33.5484 107.958 38.0274 107.685 42.6215 106.064C47.2922 104.416 52.4946 101.241 57.694 96.6993L54.8185 93.4075ZM32.3634 102.23C30.683 101.263 29.1722 98.9566 28.4271 94.9692C27.694 91.0456 27.7836 85.8563 28.9398 79.771L24.6459 78.9551C23.4213 85.3999 23.2694 91.1622 24.1307 95.772C24.9801 100.318 26.8997 104.128 30.1823 106.018L32.3634 102.23ZM28.9398 79.771C30.8953 69.4793 35.8368 56.7155 43.0499 44.213L39.264 42.0288C31.8687 54.8471 26.7136 68.0727 24.6459 78.9551L28.9398 79.771ZM40.9601 45.2974L40.9624 45.2976L41.3562 40.9446L41.3539 40.9444L40.9601 45.2974ZM43.0686 64.0634C35.9051 51.7002 31.0692 39.2487 29.0635 29.0143L24.7743 29.8549C26.8928 40.6647 31.9376 53.571 39.2867 66.2547L43.0686 64.0634ZM29.0635 29.0147C27.8566 22.8507 27.7075 17.5378 28.4028 13.5049C29.1115 9.39465 30.611 7.03204 32.2845 6.06402L30.096 2.28058C26.7709 4.20396 24.8936 8.1336 24.0956 12.7623C23.2843 17.4682 23.4988 23.3408 24.7742 29.8545L29.0635 29.0147ZM32.2846 6.06396C34.0542 5.04021 37.0395 4.92418 41.2043 6.47774C45.2898 8.00169 50.1111 10.9982 55.1437 15.4636L58.0446 12.1942C52.7374 7.48519 47.4612 4.14668 42.7319 2.38257C38.082 0.648077 33.5352 0.29095 30.0959 2.28065L32.2846 6.06396ZM55.1437 15.4636C62.7343 22.1983 70.6243 32.4255 77.4369 44.1849L81.2189 41.9939C74.2545 29.9725 66.0893 19.3319 58.0445 12.1942L55.1437 15.4636ZM77.4369 44.1849C84.4353 56.2649 89.6044 68.381 91.599 78.4493L95.8865 77.6C93.7628 66.8802 88.3455 54.2952 81.2189 41.9939L77.4369 44.1849ZM91.599 78.4493C92.8635 84.8327 92.9577 90.3445 92.1808 94.5294C91.3891 98.7939 89.7811 101.282 88.0354 102.292L90.224 106.076C93.5881 104.129 95.5894 100.115 96.4782 95.3272C97.3818 90.4597 97.2276 84.3699 95.8865 77.6L91.599 78.4493ZM88.0354 102.292C86.3556 103.264 83.6002 103.42 79.7706 102.074C76.0023 100.749 71.548 98.0796 66.8495 94.0392L63.9997 97.3532C68.9755 101.632 73.8948 104.641 78.3209 106.197C82.6858 107.732 86.9458 107.972 90.224 106.076L88.0354 102.292ZM66.8494 94.0391C58.9033 87.2064 50.305 76.5537 43.0686 64.0635L39.2867 66.2546C46.706 79.0606 55.5979 90.1287 63.9997 97.3532L66.8494 94.0391Z" fill="#00D8FF"/>
</svg>
