<svg width="104" height="104" viewBox="0 0 104 104" fill="none" xmlns="http://www.w3.org/2000/svg">
<path d="M103.223 0.998413H0.969916C0.953361 0.998413 0.939941 1.01182 0.939941 1.02837V103.208C0.939941 103.224 0.953361 103.238 0.969916 103.238H103.223C103.239 103.238 103.253 103.224 103.253 103.208V1.02837C103.253 1.01182 103.239 0.998413 103.223 0.998413Z" fill="#21759B"/>
<path d="M41.7052 88.0616L52.8957 55.313L64.4858 87.0631L70.2808 83.8682L81.4713 51.519C83.4696 46.3271 84.0691 42.1337 84.0691 38.5394C84.2689 31.9497 81.4713 26.1588 76.6754 25.5598C72.2791 25.1604 69.8812 29.3538 70.081 31.9497C70.4807 37.9403 76.4755 41.335 76.4755 49.5221C76.4755 55.5127 72.6788 64.898 70.081 73.8838L57.0921 35.1447C59.2902 34.945 61.2885 34.945 61.2885 34.945C63.2868 34.7453 63.087 31.75 61.0887 31.9497C54.4943 32.5488 48.4994 32.3491 41.905 31.9497C39.9068 31.75 39.7069 34.7453 41.7052 34.945C41.7052 34.945 43.5037 34.945 45.502 35.1447L51.0972 50.5205L43.104 74.2832L30.1151 35.1447C32.3132 34.945 34.1117 34.945 34.1117 34.945C36.11 34.7453 35.9102 31.75 33.9119 31.9497C27.917 32.3491 22.1219 32.7485 20.7231 31.75L18.9247 36.7422L36.5097 85.266L41.7052 88.0616Z" fill="white"/>
</svg>
